<?xml version="1.0" standalone="no"?>
<!DOCTYPE svg PUBLIC "-//W3C//DTD SVG 20010904//EN"
 "http://www.w3.org/TR/2001/REC-SVG-20010904/DTD/svg10.dtd">
<svg version="1.0" xmlns="http://www.w3.org/2000/svg"
 width="323.000000pt" height="69.000000pt" viewBox="0 0 323.000000 69.000000"
 preserveAspectRatio="xMidYMid meet">

<g transform="translate(0.000000,69.000000) scale(0.100000,-0.100000)"
fill="#000000" stroke="none">
<path d="M250 471 l0 -221 123 0 c132 0 181 14 222 60 18 20 20 36 20 155 0
128 -1 134 -25 160 -46 50 -76 59 -212 63 l-128 4 0 -221z m241 123 c17 -15
19 -32 19 -129 0 -132 -3 -137 -91 -143 l-59 -4 0 152 0 153 56 -6 c32 -3 64
-13 75 -23z"/>
<path d="M730 683 c-48 -18 -50 -26 -50 -218 0 -223 -5 -215 126 -215 77 0 93
3 112 20 43 40 30 50 -63 50 l-85 0 0 55 0 55 70 0 70 0 0 35 0 35 -70 0 -70
0 0 55 0 55 86 0 c74 0 85 2 80 16 -3 9 -6 20 -6 25 0 28 -148 51 -200 32z"/>
<path d="M980 677 c0 -6 29 -55 64 -107 72 -109 76 -81 -27 -228 -31 -46 -55
-88 -52 -93 4 -5 26 -9 50 -9 44 0 45 1 95 75 28 41 53 75 55 75 2 0 27 -34
55 -75 l51 -75 50 0 c62 0 63 -2 -26 124 -36 52 -65 100 -65 107 0 8 29 57 64
109 35 52 62 98 59 103 -2 4 -24 7 -48 7 -44 0 -45 -1 -89 -70 -25 -38 -48
-70 -51 -70 -3 0 -25 32 -50 70 -45 70 -45 70 -90 70 -29 0 -45 -4 -45 -13z"/>
<path d="M1400 523 c0 -140 3 -174 18 -202 25 -50 64 -69 145 -70 64 -1 67 0
67 23 0 42 -11 56 -42 56 -36 0 -83 24 -92 45 -3 9 -6 84 -6 166 l0 149 -45 0
-45 0 0 -167z"/>
<path d="M2160 470 l0 -220 45 0 45 0 0 170 0 170 54 0 c82 0 87 -16 26 -86
-58 -66 -58 -64 4 -174 l43 -75 57 -3 c31 -2 56 1 56 5 0 4 -21 42 -45 83 -25
41 -45 80 -45 87 0 7 9 21 21 31 51 42 64 122 29 180 -27 44 -54 52 -181 52
l-109 0 0 -220z"/>
<path d="M1740 470 l0 -40 150 0 150 0 0 40 0 40 -150 0 -150 0 0 -40z"/>
<path d="M0 320 l0 -60 60 0 60 0 0 60 0 60 -60 0 -60 0 0 -60z"/>
<path d="M1660 290 l0 -40 155 0 155 0 0 40 0 40 -155 0 -155 0 0 -40z"/>
<path d="M2690 95 l0 -55 33 1 c23 1 26 3 10 6 -31 6 -31 40 0 46 l22 4 -22 2
c-16 1 -23 7 -23 20 0 12 8 21 23 24 16 3 13 5 -10 6 l-33 1 0 -55z"/>
<path d="M2782 93 l1 -58 6 45 6 45 18 -33 c10 -19 21 -31 24 -28 6 6 -43 86
-52 86 -3 0 -4 -26 -3 -57z"/>
<path d="M2842 95 c1 -30 6 -55 10 -55 4 0 8 25 8 55 0 31 -5 55 -10 55 -6 0
-9 -23 -8 -55z"/>
<path d="M2880 95 l0 -55 33 1 c23 1 26 3 10 6 -27 5 -31 39 -5 46 16 4 16 5
0 6 -27 2 -23 39 5 44 16 3 13 5 -10 6 l-33 1 0 -55z"/>
<path d="M2960 95 c0 -30 5 -55 10 -55 6 0 10 11 10 25 0 33 18 32 31 -2 6
-16 13 -23 16 -16 2 7 0 20 -6 31 -7 13 -7 22 1 30 18 18 1 42 -32 42 -30 0
-30 0 -30 -55z m53 39 c9 -10 -4 -34 -19 -34 -8 0 -14 9 -14 20 0 19 19 27 33
14z"/>
<path d="M3056 128 c-9 -12 -16 -28 -16 -35 0 -22 39 -53 65 -53 21 0 25 5 25
30 0 22 -5 30 -17 29 -11 0 -13 -3 -5 -6 19 -8 15 -43 -6 -43 -24 0 -42 19
-42 46 0 26 16 40 50 47 21 4 20 4 -7 6 -23 1 -36 -5 -47 -21z"/>
<path d="M3164 122 c9 -17 16 -42 16 -57 0 -14 5 -25 10 -25 6 0 10 14 10 30
0 17 7 42 16 55 9 14 12 25 7 25 -5 0 -16 -12 -23 -27 -12 -27 -13 -27 -20 -7
-5 12 -14 25 -20 29 -7 4 -5 -6 4 -23z"/>
</g>
</svg>
